<?xml version="1.0" encoding="UTF-8" standalone="no"?>
<svg
   width="32"
   height="32"
   viewBox="0 0 32 32"
   version="1.1"
   xmlns="http://www.w3.org/2000/svg">
  <circle cx="16" cy="16" r="14" fill="#25D366" />
  <path
     d="m 11.9,21.9 c -0.8,0 -1.6,-0.2 -2.3,-0.5 L 6,22.3 7.1,19 C 6.7,18.2 6.5,17.4 6.5,16.5 c 0,-3.1 2.5,-5.6 5.6,-5.6 3.1,0 5.6,2.5 5.6,5.6 0,3.1 -2.5,5.6 -5.6,5.6 z m 0,-10.3 c -2.6,0 -4.7,2.1 -4.7,4.7 0,0.9 0.2,1.7 0.7,2.5 l 0.2,0.3 -0.6,1.8 1.9,-0.6 0.3,0.2 c 0.7,0.4 1.5,0.6 2.3,0.6 2.6,0 4.7,-2.1 4.7,-4.7 0,-2.7 -2.1,-4.8 -4.8,-4.8 z m 2.8,6 c -0.1,-0.1 -0.4,-0.2 -0.7,-0.4 -0.3,-0.2 -1.8,-0.9 -2.1,-1 -0.3,-0.1 -0.5,-0.1 -0.7,0.1 -0.2,0.2 -0.8,1 -1,1.2 -0.2,0.2 -0.3,0.2 -0.6,0.1 -0.3,-0.2 -1.2,-0.4 -2.2,-1.4 -0.8,-0.7 -1.4,-1.6 -1.5,-1.9 -0.2,-0.3 0,-0.4 0.1,-0.5 0.1,-0.1 0.3,-0.3 0.4,-0.5 0.1,-0.2 0.2,-0.3 0.3,-0.5 0.1,-0.2 0,-0.4 -0.1,-0.5 -0.1,-0.1 -0.7,-1.7 -1,-2.3 -0.3,-0.6 -0.5,-0.5 -0.7,-0.5 -0.2,0 -0.4,0 -0.6,0 -0.2,0 -0.5,0.1 -0.8,0.3 -0.3,0.2 -1,1 -1,2.5 0,1.5 1.1,2.9 1.2,3.1 0.1,0.2 2.1,3.2 5.1,4.5 0.7,0.3 1.3,0.5 1.7,0.6 0.7,0.2 1.4,0.2 1.9,0.1 0.6,-0.1 1.8,-0.7 2,-1.4 0.2,-0.7 0.2,-1.3 0.2,-1.4 0,-0.2 -0.1,-0.3 -0.2,-0.3 z M 20.7,11 c -1.3,0 -2.5,0.4 -3.4,1.2 l -0.2,-0.4 c -1,-1.7 -2.8,-2.8 -4.8,-2.8 -3.1,0 -5.6,2.5 -5.6,5.6 0,1 0.3,2 0.8,2.9 l -1,3.1 3.3,-1 c 0.9,0.5 1.9,0.7 2.9,0.7 2.2,0 4.1,-1.3 5,-3.1 h 0.4 c 3.1,0 5.6,-2.5 5.6,-5.6 0,-0.6 -0.1,-1.1 -0.3,-1.6 C 22.9,9.3 21.9,9 20.7,9 Z"
     fill="#ffffff" />
  <text
     x="20.5"
     y="21"
     font-size="7"
     font-weight="bold"
     fill="#25D366"
     stroke="#ffffff"
     stroke-width="0.5">G</text>
</svg> 